%TF.GenerationSoftware,KiCad,Pcbnew,8.0.5*%
%TF.CreationDate,2024-11-25T17:26:57+07:00*%
%TF.ProjectId,MEASURE_POWER_AC,4d454153-5552-4455-9f50-4f5745525f41,rev?*%
%TF.SameCoordinates,Original*%
%TF.FileFunction,Profile,NP*%
%FSLAX46Y46*%
G04 Gerber Fmt 4.6, Leading zero omitted, Abs format (unit mm)*
G04 Created by KiCad (PCBNEW 8.0.5) date 2024-11-25 17:26:57*
%MOMM*%
%LPD*%
G01*
G04 APERTURE LIST*
%TA.AperFunction,Profile*%
%ADD10C,0.100000*%
%TD*%
G04 APERTURE END LIST*
D10*
X268300200Y-27940000D02*
G75*
G02*
X267792200Y-28448000I-508000J0D01*
G01*
X208940400Y-123164600D02*
X208940400Y-111353600D01*
X263067800Y-28448000D02*
X267792200Y-28448000D01*
X276225000Y-25171400D02*
G75*
G02*
X278765000Y-27711400I0J-2540000D01*
G01*
X209372200Y-123164600D02*
X208940400Y-123164600D01*
X208940400Y-111353600D02*
X204165200Y-111353600D01*
X183159400Y-124891800D02*
G75*
G02*
X180619400Y-122351800I0J2540000D01*
G01*
X204165200Y-111353600D02*
X204165200Y-111099600D01*
X208940400Y-105816400D02*
X209372200Y-105816400D01*
X268554200Y-25171400D02*
X276225000Y-25171400D01*
X268300200Y-27940000D02*
X268300200Y-25425400D01*
X263067800Y-28448000D02*
G75*
G02*
X262559800Y-27940000I0J508000D01*
G01*
X278765000Y-122351800D02*
G75*
G02*
X276225000Y-124891800I-2540000J0D01*
G01*
X209372200Y-106400600D02*
X209372200Y-123164600D01*
X204165200Y-111099600D02*
X208940400Y-111099600D01*
X268300200Y-25425400D02*
G75*
G02*
X268554200Y-25171400I254000J0D01*
G01*
X262559800Y-25400000D02*
X262559800Y-27940000D01*
X183159400Y-25146000D02*
X262305800Y-25146000D01*
X262305800Y-25146000D02*
G75*
G02*
X262559800Y-25400000I0J-254000D01*
G01*
X278765000Y-27711400D02*
X278765000Y-122351800D01*
X180619400Y-122351800D02*
X180619400Y-27686000D01*
X180619400Y-27686000D02*
G75*
G02*
X183159400Y-25146000I2540000J0D01*
G01*
X209372200Y-105816400D02*
X209372200Y-106400600D01*
X208940400Y-111099600D02*
X208940400Y-105816400D01*
X276225000Y-124891800D02*
X183159400Y-124891800D01*
M02*
