%TF.GenerationSoftware,KiCad,Pcbnew,8.0.5*%
%TF.CreationDate,2024-11-25T17:26:57+07:00*%
%TF.ProjectId,MEASURE_POWER_AC,4d454153-5552-4455-9f50-4f5745525f41,rev?*%
%TF.SameCoordinates,Original*%
%TF.FileFunction,Soldermask,Top*%
%TF.FilePolarity,Negative*%
%FSLAX46Y46*%
G04 Gerber Fmt 4.6, Leading zero omitted, Abs format (unit mm)*
G04 Created by KiCad (PCBNEW 8.0.5) date 2024-11-25 17:26:57*
%MOMM*%
%LPD*%
G01*
G04 APERTURE LIST*
G04 Aperture macros list*
%AMRoundRect*
0 Rectangle with rounded corners*
0 $1 Rounding radius*
0 $2 $3 $4 $5 $6 $7 $8 $9 X,Y pos of 4 corners*
0 Add a 4 corners polygon primitive as box body*
4,1,4,$2,$3,$4,$5,$6,$7,$8,$9,$2,$3,0*
0 Add four circle primitives for the rounded corners*
1,1,$1+$1,$2,$3*
1,1,$1+$1,$4,$5*
1,1,$1+$1,$6,$7*
1,1,$1+$1,$8,$9*
0 Add four rect primitives between the rounded corners*
20,1,$1+$1,$2,$3,$4,$5,0*
20,1,$1+$1,$4,$5,$6,$7,0*
20,1,$1+$1,$6,$7,$8,$9,0*
20,1,$1+$1,$8,$9,$2,$3,0*%
G04 Aperture macros list end*
%ADD10C,1.501600*%
%ADD11RoundRect,0.251000X-0.326000X0.251000X-0.326000X-0.251000X0.326000X-0.251000X0.326000X0.251000X0*%
%ADD12RoundRect,0.251000X-0.251000X-0.326000X0.251000X-0.326000X0.251000X0.326000X-0.251000X0.326000X0*%
%ADD13RoundRect,0.269150X-0.481650X0.269150X-0.481650X-0.269150X0.481650X-0.269150X0.481650X0.269150X0*%
%ADD14RoundRect,0.050800X-0.660400X0.660400X-0.660400X-0.660400X0.660400X-0.660400X0.660400X0.660400X0*%
%ADD15C,1.422400*%
%ADD16RoundRect,0.276000X0.276000X0.301000X-0.276000X0.301000X-0.276000X-0.301000X0.276000X-0.301000X0*%
%ADD17RoundRect,0.276000X0.301000X-0.276000X0.301000X0.276000X-0.301000X0.276000X-0.301000X-0.276000X0*%
%ADD18RoundRect,0.251000X0.326000X-0.251000X0.326000X0.251000X-0.326000X0.251000X-0.326000X-0.251000X0*%
%ADD19RoundRect,0.269150X0.481650X-0.269150X0.481650X0.269150X-0.481650X0.269150X-0.481650X-0.269150X0*%
%ADD20RoundRect,0.050800X-0.584200X0.266700X-0.584200X-0.266700X0.584200X-0.266700X0.584200X0.266700X0*%
%ADD21C,2.101600*%
%ADD22RoundRect,0.276000X-0.276000X-0.301000X0.276000X-0.301000X0.276000X0.301000X-0.276000X0.301000X0*%
%ADD23RoundRect,0.276000X-0.301000X0.276000X-0.301000X-0.276000X0.301000X-0.276000X0.301000X0.276000X0*%
%ADD24RoundRect,0.293404X-0.533596X0.396096X-0.533596X-0.396096X0.533596X-0.396096X0.533596X0.396096X0*%
%ADD25O,1.854000X3.504000*%
%ADD26RoundRect,0.050800X-1.100000X-0.850000X1.100000X-0.850000X1.100000X0.850000X-1.100000X0.850000X0*%
%ADD27RoundRect,0.050800X1.000000X-0.850000X1.000000X0.850000X-1.000000X0.850000X-1.000000X-0.850000X0*%
%ADD28O,2.101600X1.801600*%
%ADD29RoundRect,0.050800X-1.500000X-1.500000X1.500000X-1.500000X1.500000X1.500000X-1.500000X1.500000X0*%
%ADD30C,0.901600*%
%ADD31C,6.501600*%
%ADD32RoundRect,0.264111X0.686689X-1.036689X0.686689X1.036689X-0.686689X1.036689X-0.686689X-1.036689X0*%
%ADD33RoundRect,0.251000X0.251000X0.326000X-0.251000X0.326000X-0.251000X-0.326000X0.251000X-0.326000X0*%
%ADD34RoundRect,0.102000X-0.750000X-0.450000X0.750000X-0.450000X0.750000X0.450000X-0.750000X0.450000X0*%
%ADD35RoundRect,0.102000X-0.450000X-0.750000X0.450000X-0.750000X0.450000X0.750000X-0.450000X0.750000X0*%
%ADD36RoundRect,0.102000X-0.450000X-0.450000X0.450000X-0.450000X0.450000X0.450000X-0.450000X0.450000X0*%
%ADD37RoundRect,0.050800X-0.266700X0.730250X-0.266700X-0.730250X0.266700X-0.730250X0.266700X0.730250X0*%
%ADD38RoundRect,0.050800X1.498600X3.746500X-1.498600X3.746500X-1.498600X-3.746500X1.498600X-3.746500X0*%
%ADD39RoundRect,0.273091X-0.327709X-0.327709X0.327709X-0.327709X0.327709X0.327709X-0.327709X0.327709X0*%
%ADD40RoundRect,0.260160X1.040640X-1.990640X1.040640X1.990640X-1.040640X1.990640X-1.040640X-1.990640X0*%
%ADD41O,3.301600X2.001600*%
%ADD42RoundRect,0.050800X-1.300000X1.300000X-1.300000X-1.300000X1.300000X-1.300000X1.300000X1.300000X0*%
%ADD43C,2.701600*%
%ADD44RoundRect,0.273091X-0.327709X0.327709X-0.327709X-0.327709X0.327709X-0.327709X0.327709X0.327709X0*%
%ADD45RoundRect,0.175400X0.175400X-0.900400X0.175400X0.900400X-0.175400X0.900400X-0.175400X-0.900400X0*%
%ADD46RoundRect,0.050800X-0.730250X-0.266700X0.730250X-0.266700X0.730250X0.266700X-0.730250X0.266700X0*%
%ADD47RoundRect,0.050800X0.139700X0.736600X-0.139700X0.736600X-0.139700X-0.736600X0.139700X-0.736600X0*%
%ADD48RoundRect,0.050800X0.736600X-0.139700X0.736600X0.139700X-0.736600X0.139700X-0.736600X-0.139700X0*%
%ADD49RoundRect,0.273091X0.327709X0.327709X-0.327709X0.327709X-0.327709X-0.327709X0.327709X-0.327709X0*%
%ADD50RoundRect,0.050800X0.279400X-1.079500X0.279400X1.079500X-0.279400X1.079500X-0.279400X-1.079500X0*%
%ADD51RoundRect,0.264941X-0.635859X-0.760859X0.635859X-0.760859X0.635859X0.760859X-0.635859X0.760859X0*%
%ADD52O,1.801600X2.051600*%
%ADD53RoundRect,0.050800X-0.368300X-0.177800X0.368300X-0.177800X0.368300X0.177800X-0.368300X0.177800X0*%
%ADD54RoundRect,0.273091X0.327709X-0.327709X0.327709X0.327709X-0.327709X0.327709X-0.327709X-0.327709X0*%
%ADD55RoundRect,0.050800X-0.600000X0.700000X-0.600000X-0.700000X0.600000X-0.700000X0.600000X0.700000X0*%
%ADD56O,0.901600X0.901600*%
%ADD57RoundRect,0.050800X0.225000X0.650000X-0.225000X0.650000X-0.225000X-0.650000X0.225000X-0.650000X0*%
%ADD58O,1.251600X1.901600*%
%ADD59O,1.551600X2.101600*%
%ADD60RoundRect,0.050800X-1.100000X-1.100000X1.100000X-1.100000X1.100000X1.100000X-1.100000X1.100000X0*%
%ADD61C,2.301600*%
%ADD62RoundRect,0.050800X-0.850000X0.850000X-0.850000X-0.850000X0.850000X-0.850000X0.850000X0.850000X0*%
%ADD63O,1.801600X1.801600*%
%ADD64RoundRect,0.293404X0.396096X0.533596X-0.396096X0.533596X-0.396096X-0.533596X0.396096X-0.533596X0*%
%ADD65RoundRect,0.050800X0.584200X-0.266700X0.584200X0.266700X-0.584200X0.266700X-0.584200X-0.266700X0*%
%ADD66RoundRect,0.299756X-0.502244X0.314744X-0.502244X-0.314744X0.502244X-0.314744X0.502244X0.314744X0*%
%ADD67RoundRect,0.050800X-1.300000X-1.300000X1.300000X-1.300000X1.300000X1.300000X-1.300000X1.300000X0*%
%ADD68C,1.401600*%
%ADD69C,1.151600*%
G04 APERTURE END LIST*
D10*
%TO.C,TP3*%
X251472400Y-112633000D03*
X251472400Y-110633000D03*
%TD*%
D11*
%TO.C,R5*%
X229756600Y-55157000D03*
X229756600Y-56807000D03*
%TD*%
D12*
%TO.C,R12*%
X244717200Y-33195600D03*
X246367200Y-33195600D03*
%TD*%
D10*
%TO.C,TP2*%
X235492800Y-94538800D03*
X233492800Y-94538800D03*
%TD*%
D13*
%TO.C,D23*%
X205887320Y-27281900D03*
X205887320Y-29156900D03*
%TD*%
D14*
%TO.C,D15*%
X260096400Y-53771000D03*
D15*
X260096400Y-56311000D03*
X260096400Y-58851000D03*
X260096400Y-61391000D03*
X260096400Y-63931000D03*
X275336400Y-63931000D03*
X275336400Y-61391000D03*
X275336400Y-58851000D03*
X275336400Y-56311000D03*
X275336400Y-53771000D03*
%TD*%
D16*
%TO.C,C5*%
X245618600Y-58805000D03*
X244068600Y-58805000D03*
%TD*%
D17*
%TO.C,C98*%
X251510800Y-54064200D03*
X251510800Y-52514200D03*
%TD*%
D18*
%TO.C,R3*%
X276924400Y-47194200D03*
X276924400Y-45544200D03*
%TD*%
D12*
%TO.C,R9*%
X244691800Y-40815600D03*
X246341800Y-40815600D03*
%TD*%
D16*
%TO.C,C78*%
X213058809Y-76200000D03*
X211508809Y-76200000D03*
%TD*%
D18*
%TO.C,R8*%
X227418000Y-48587900D03*
X227418000Y-46937900D03*
%TD*%
D14*
%TO.C,D17*%
X260096400Y-79539300D03*
D15*
X260096400Y-82079300D03*
X260096400Y-84619300D03*
X260096400Y-87159300D03*
X260096400Y-89699300D03*
X275336400Y-89699300D03*
X275336400Y-87159300D03*
X275336400Y-84619300D03*
X275336400Y-82079300D03*
X275336400Y-79539300D03*
%TD*%
D13*
%TO.C,D2*%
X231444800Y-55171100D03*
X231444800Y-57046100D03*
%TD*%
D19*
%TO.C,D25*%
X197739000Y-29156900D03*
X197739000Y-27281900D03*
%TD*%
D10*
%TO.C,TP6*%
X249199400Y-103920800D03*
X249199400Y-101920800D03*
%TD*%
D18*
%TO.C,R54*%
X252151000Y-71786599D03*
X252151000Y-70136599D03*
%TD*%
D16*
%TO.C,C16*%
X234315000Y-79587600D03*
X232765000Y-79587600D03*
%TD*%
D18*
%TO.C,R13*%
X244829400Y-29399600D03*
X244829400Y-27749600D03*
%TD*%
D17*
%TO.C,C11*%
X235534200Y-72403000D03*
X235534200Y-70853000D03*
%TD*%
D10*
%TO.C,TP4*%
X244551200Y-86877400D03*
X244551200Y-84877400D03*
%TD*%
D20*
%TO.C,Q3*%
X253974600Y-57898599D03*
X253974600Y-59798601D03*
X256006600Y-58848600D03*
%TD*%
D21*
%TO.C,C74*%
X197354200Y-93798700D03*
X182354400Y-93798700D03*
%TD*%
D22*
%TO.C,C12*%
X232320800Y-68914200D03*
X233870800Y-68914200D03*
%TD*%
D18*
%TO.C,R6*%
X276924400Y-40920400D03*
X276924400Y-39270400D03*
%TD*%
D22*
%TO.C,C8*%
X247517000Y-73888600D03*
X249067000Y-73888600D03*
%TD*%
D14*
%TO.C,D16*%
X260096400Y-66655150D03*
D15*
X260096400Y-69195150D03*
X260096400Y-71735150D03*
X260096400Y-74275150D03*
X260096400Y-76815150D03*
X275336400Y-76815150D03*
X275336400Y-74275150D03*
X275336400Y-71735150D03*
X275336400Y-69195150D03*
X275336400Y-66655150D03*
%TD*%
D23*
%TO.C,C17*%
X235956000Y-74951800D03*
X235956000Y-76501800D03*
%TD*%
D24*
%TO.C,C88*%
X223266000Y-72336138D03*
X223266000Y-74411138D03*
%TD*%
D25*
%TO.C,RV1*%
X194691000Y-110678600D03*
X194691000Y-105678600D03*
%TD*%
D26*
%TO.C,SW1*%
X271387200Y-47194200D03*
X274787200Y-47194200D03*
%TD*%
D27*
%TO.C,PS1*%
X191354200Y-83032600D03*
D28*
X197354200Y-83032600D03*
X185354200Y-49432600D03*
X203354200Y-49432600D03*
%TD*%
D29*
%TO.C,TP7*%
X266522200Y-122555000D03*
%TD*%
D10*
%TO.C,TP1*%
X227625400Y-110109000D03*
X229625400Y-110109000D03*
%TD*%
D19*
%TO.C,D3*%
X225526600Y-48587900D03*
X225526600Y-46712900D03*
%TD*%
D22*
%TO.C,C10*%
X232320800Y-67574800D03*
X233870800Y-67574800D03*
%TD*%
D30*
%TO.C,H4*%
X272224800Y-29057600D03*
X272927744Y-27360544D03*
X272927744Y-30754656D03*
X274624800Y-26657600D03*
D31*
X274624800Y-29057600D03*
D30*
X274624800Y-31457600D03*
X276321856Y-27360544D03*
X276321856Y-30754656D03*
X277024800Y-29057600D03*
%TD*%
D11*
%TO.C,R7*%
X276924400Y-35396600D03*
X276924400Y-37046600D03*
%TD*%
D32*
%TO.C,D14*%
X218541600Y-69831200D03*
X218541600Y-73831200D03*
%TD*%
D33*
%TO.C,R38*%
X213058809Y-81674600D03*
X211408809Y-81674600D03*
%TD*%
D34*
%TO.C,U2*%
X225526600Y-26845600D03*
X225526600Y-28115600D03*
X225526600Y-29385600D03*
X225526600Y-30655600D03*
X225526600Y-31925600D03*
X225526600Y-33195600D03*
X225526600Y-34465600D03*
X225526600Y-35735600D03*
X225526600Y-37005600D03*
X225526600Y-38275600D03*
X225526600Y-39545600D03*
X225526600Y-40815600D03*
X225526600Y-42085600D03*
X225526600Y-43355600D03*
D35*
X228561600Y-44605600D03*
X229831600Y-44605600D03*
X231101600Y-44605600D03*
X232371600Y-44605600D03*
X233641600Y-44605600D03*
X234911600Y-44605600D03*
X236181600Y-44605600D03*
X237451600Y-44605600D03*
X238721600Y-44605600D03*
X239991600Y-44605600D03*
D34*
X243026600Y-43355600D03*
X243026600Y-42085600D03*
X243026600Y-40815600D03*
X243026600Y-39545600D03*
X243026600Y-38275600D03*
X243026600Y-37005600D03*
X243026600Y-35735600D03*
X243026600Y-34465600D03*
X243026600Y-33195600D03*
X243026600Y-31925600D03*
X243026600Y-30655600D03*
X243026600Y-29385600D03*
X243026600Y-28115600D03*
X243026600Y-26845600D03*
D36*
X231376600Y-33165600D03*
X232776600Y-33165600D03*
X234176600Y-33165600D03*
X231376600Y-34565600D03*
X232776600Y-34565600D03*
X234176600Y-34565600D03*
X231376600Y-35965600D03*
X232776600Y-35965600D03*
X234176600Y-35965600D03*
%TD*%
D17*
%TO.C,C9*%
X236905800Y-72377600D03*
X236905800Y-70827600D03*
%TD*%
D37*
%TO.C,U13*%
X214328809Y-68962838D03*
X213058809Y-68962838D03*
X211788809Y-68962838D03*
X210518809Y-68962838D03*
X210518809Y-74411138D03*
X211788809Y-74411138D03*
X213058809Y-74411138D03*
X214328809Y-74411138D03*
%TD*%
D38*
%TO.C,L1*%
X221027000Y-79687988D03*
X216027000Y-79687988D03*
%TD*%
D22*
%TO.C,C101*%
X246824200Y-28829000D03*
X248374200Y-28829000D03*
%TD*%
D23*
%TO.C,C68*%
X244627400Y-102399800D03*
X244627400Y-103949800D03*
%TD*%
D39*
%TO.C,D9*%
X242953100Y-75869800D03*
X245753100Y-75869800D03*
%TD*%
D11*
%TO.C,R1*%
X235944200Y-77937600D03*
X235944200Y-79587600D03*
%TD*%
D22*
%TO.C,C18*%
X273237200Y-49657000D03*
X274787200Y-49657000D03*
%TD*%
D12*
%TO.C,R2*%
X232245800Y-65569200D03*
X233895800Y-65569200D03*
%TD*%
D16*
%TO.C,C1*%
X245618600Y-60202000D03*
X244068600Y-60202000D03*
%TD*%
D30*
%TO.C,H1*%
X272224800Y-121056400D03*
X272927744Y-119359344D03*
X272927744Y-122753456D03*
X274624800Y-118656400D03*
D31*
X274624800Y-121056400D03*
D30*
X274624800Y-123456400D03*
X276321856Y-119359344D03*
X276321856Y-122753456D03*
X277024800Y-121056400D03*
%TD*%
D40*
%TO.C,C92*%
X189687200Y-42630200D03*
X189687200Y-34230200D03*
%TD*%
D22*
%TO.C,C14*%
X239556800Y-77368400D03*
X241106800Y-77368400D03*
%TD*%
D17*
%TO.C,C97*%
X250139200Y-54064200D03*
X250139200Y-52514200D03*
%TD*%
D13*
%TO.C,D1*%
X227998200Y-55188000D03*
X227998200Y-57063000D03*
%TD*%
D20*
%TO.C,Q1*%
X228371400Y-98691800D03*
X228371400Y-100591802D03*
X230403400Y-99641801D03*
%TD*%
D22*
%TO.C,C100*%
X246769200Y-27051000D03*
X248319200Y-27051000D03*
%TD*%
D12*
%TO.C,R10*%
X244691800Y-37033600D03*
X246341800Y-37033600D03*
%TD*%
D18*
%TO.C,R31*%
X232073450Y-100341800D03*
X232073450Y-98691800D03*
%TD*%
D41*
%TO.C,SW4*%
X209295400Y-35776400D03*
X221795400Y-35776400D03*
X209295400Y-40776400D03*
X221795400Y-40776400D03*
%TD*%
D12*
%TO.C,R57*%
X251510800Y-39153200D03*
X253160800Y-39153200D03*
%TD*%
D22*
%TO.C,C6*%
X234352800Y-58754200D03*
X235902800Y-58754200D03*
%TD*%
D12*
%TO.C,R35*%
X211417800Y-63384800D03*
X213067800Y-63384800D03*
%TD*%
D14*
%TO.C,D19*%
X260096400Y-105307600D03*
D15*
X260096400Y-107847600D03*
X260096400Y-110387600D03*
X260096400Y-112927600D03*
X260096400Y-115467600D03*
X275336400Y-115467600D03*
X275336400Y-112927600D03*
X275336400Y-110387600D03*
X275336400Y-107847600D03*
X275336400Y-105307600D03*
%TD*%
D12*
%TO.C,R39*%
X211408809Y-80301200D03*
X213058809Y-80301200D03*
%TD*%
D41*
%TO.C,SW5*%
X209270000Y-50459000D03*
X221770000Y-50459000D03*
X209270000Y-55459000D03*
X221770000Y-55459000D03*
%TD*%
D42*
%TO.C,J2*%
X185724600Y-105811400D03*
D43*
X185724600Y-110891400D03*
%TD*%
D12*
%TO.C,R36*%
X208868809Y-65823200D03*
X210518809Y-65823200D03*
%TD*%
D44*
%TO.C,D13*%
X229844600Y-60855400D03*
X229844600Y-63655400D03*
%TD*%
D20*
%TO.C,Q4*%
X253949200Y-61970399D03*
X253949200Y-63870401D03*
X255981200Y-62920400D03*
%TD*%
D30*
%TO.C,H2*%
X181902400Y-121056400D03*
X182605344Y-119359344D03*
X182605344Y-122753456D03*
X184302400Y-118656400D03*
D31*
X184302400Y-121056400D03*
D30*
X184302400Y-123456400D03*
X185999456Y-119359344D03*
X185999456Y-122753456D03*
X186702400Y-121056400D03*
%TD*%
D18*
%TO.C,R34*%
X246087000Y-104023601D03*
X246087000Y-102373601D03*
%TD*%
D22*
%TO.C,C2*%
X234352800Y-60151200D03*
X235902800Y-60151200D03*
%TD*%
D23*
%TO.C,C21*%
X223635600Y-26565600D03*
X223635600Y-28115600D03*
%TD*%
D13*
%TO.C,D24*%
X201813160Y-27281900D03*
X201813160Y-29156900D03*
%TD*%
D22*
%TO.C,C80*%
X208968809Y-67183000D03*
X210518809Y-67183000D03*
%TD*%
D20*
%TO.C,Q6*%
X253949200Y-69886597D03*
X253949200Y-71786599D03*
X255981200Y-70836598D03*
%TD*%
D30*
%TO.C,H3*%
X181902400Y-29057600D03*
X182605344Y-27360544D03*
X182605344Y-30754656D03*
X184302400Y-26657600D03*
D31*
X184302400Y-29057600D03*
D30*
X184302400Y-31457600D03*
X185999456Y-27360544D03*
X185999456Y-30754656D03*
X186702400Y-29057600D03*
%TD*%
D23*
%TO.C,C65*%
X237521750Y-98791800D03*
X237521750Y-100341800D03*
%TD*%
D45*
%TO.C,U17*%
X250240800Y-50471600D03*
X251510800Y-50471600D03*
X252780800Y-50471600D03*
X254050800Y-50471600D03*
X255320800Y-50471600D03*
X256590800Y-50471600D03*
X257860800Y-50471600D03*
X259130800Y-50471600D03*
X259130800Y-41171600D03*
X257860800Y-41171600D03*
X256590800Y-41171600D03*
X255320800Y-41171600D03*
X254050800Y-41171600D03*
X252780800Y-41171600D03*
X251510800Y-41171600D03*
X250240800Y-41171600D03*
%TD*%
D12*
%TO.C,R28*%
X228689800Y-104634400D03*
X230339800Y-104634400D03*
%TD*%
D46*
%TO.C,U11*%
X232073450Y-101955600D03*
X232073450Y-103225600D03*
X232073450Y-104495600D03*
X232073450Y-105765600D03*
X237521750Y-105765600D03*
X237521750Y-104495600D03*
X237521750Y-103225600D03*
X237521750Y-101955600D03*
%TD*%
D47*
%TO.C,U1*%
X237102200Y-69041200D03*
X237602199Y-69041200D03*
X238102201Y-69041200D03*
X238602200Y-69041200D03*
X239102199Y-69041200D03*
X239602200Y-69041200D03*
X240102200Y-69041200D03*
X240602201Y-69041200D03*
X241102200Y-69041200D03*
X241602199Y-69041200D03*
X242102201Y-69041200D03*
X242602200Y-69041200D03*
D48*
X244068600Y-67574800D03*
X244068600Y-67074801D03*
X244068600Y-66574799D03*
X244068600Y-66074800D03*
X244068600Y-65574801D03*
X244068600Y-65074800D03*
X244068600Y-64574800D03*
X244068600Y-64074799D03*
X244068600Y-63574800D03*
X244068600Y-63074801D03*
X244068600Y-62574799D03*
X244068600Y-62074800D03*
D47*
X242602200Y-60608400D03*
X242102201Y-60608400D03*
X241602199Y-60608400D03*
X241102200Y-60608400D03*
X240602201Y-60608400D03*
X240102200Y-60608400D03*
X239602200Y-60608400D03*
X239102199Y-60608400D03*
X238602200Y-60608400D03*
X238102201Y-60608400D03*
X237602199Y-60608400D03*
X237102200Y-60608400D03*
D48*
X235635800Y-62074800D03*
X235635800Y-62574799D03*
X235635800Y-63074801D03*
X235635800Y-63574800D03*
X235635800Y-64074799D03*
X235635800Y-64574800D03*
X235635800Y-65074800D03*
X235635800Y-65574801D03*
X235635800Y-66074800D03*
X235635800Y-66574799D03*
X235635800Y-67074801D03*
X235635800Y-67574800D03*
%TD*%
D11*
%TO.C,R4*%
X226276800Y-55188000D03*
X226276800Y-56838000D03*
%TD*%
D12*
%TO.C,R27*%
X228689800Y-103237400D03*
X230339800Y-103237400D03*
%TD*%
%TO.C,R11*%
X244691800Y-35673400D03*
X246341800Y-35673400D03*
%TD*%
D23*
%TO.C,C22*%
X222111600Y-26565600D03*
X222111600Y-28115600D03*
%TD*%
D33*
%TO.C,R37*%
X213058809Y-77559800D03*
X211408809Y-77559800D03*
%TD*%
D49*
%TO.C,D8*%
X245753100Y-78333600D03*
X242953100Y-78333600D03*
%TD*%
D50*
%TO.C,U18*%
X250185800Y-35585400D03*
X251455800Y-35585400D03*
X252725800Y-35585400D03*
X253995800Y-35585400D03*
X255265800Y-35585400D03*
X256535800Y-35585400D03*
X257805800Y-35585400D03*
X259075800Y-35585400D03*
X259075800Y-28829000D03*
X257805800Y-28829000D03*
X256535800Y-28829000D03*
X255265800Y-28829000D03*
X253995800Y-28829000D03*
X252725800Y-28829000D03*
X251455800Y-28829000D03*
X250185800Y-28829000D03*
%TD*%
D51*
%TO.C,J3*%
X254294000Y-120726200D03*
D52*
X256794000Y-120726200D03*
X259294000Y-120726200D03*
%TD*%
D44*
%TO.C,D10*%
X227406200Y-65473100D03*
X227406200Y-68273100D03*
%TD*%
D11*
%TO.C,R32*%
X239332400Y-103225600D03*
X239332400Y-104875600D03*
%TD*%
D26*
%TO.C,SW2*%
X271387200Y-40920400D03*
X274787200Y-40920400D03*
%TD*%
D18*
%TO.C,R55*%
X252151000Y-75880001D03*
X252151000Y-74230001D03*
%TD*%
D53*
%TO.C,D20*%
X264718800Y-33553400D03*
X264718800Y-34213800D03*
X264718800Y-34874200D03*
X266801600Y-34874200D03*
X266801600Y-34213800D03*
X266801600Y-33553400D03*
%TD*%
D20*
%TO.C,Q5*%
X253949200Y-66013997D03*
X253949200Y-67913999D03*
X255981200Y-66963998D03*
%TD*%
D11*
%TO.C,R30*%
X234100000Y-98691800D03*
X234100000Y-100341800D03*
%TD*%
D33*
%TO.C,R40*%
X213058809Y-78931400D03*
X211408809Y-78931400D03*
%TD*%
D17*
%TO.C,C77*%
X210036209Y-77750000D03*
X210036209Y-76200000D03*
%TD*%
D23*
%TO.C,C66*%
X233451400Y-107429000D03*
X233451400Y-108979000D03*
%TD*%
D54*
%TO.C,D11*%
X229844600Y-68247700D03*
X229844600Y-65447700D03*
%TD*%
D11*
%TO.C,R29*%
X235598600Y-98691800D03*
X235598600Y-100341800D03*
%TD*%
D55*
%TO.C,Y1*%
X232615000Y-75574800D03*
X232615000Y-77774800D03*
X234315000Y-77774800D03*
X234315000Y-75574800D03*
%TD*%
D22*
%TO.C,C20*%
X273237200Y-37808600D03*
X274787200Y-37808600D03*
%TD*%
D11*
%TO.C,R33*%
X225438600Y-99641801D03*
X225438600Y-101291801D03*
%TD*%
D18*
%TO.C,R53*%
X252151000Y-67913999D03*
X252151000Y-66263999D03*
%TD*%
D39*
%TO.C,D6*%
X247517000Y-78333600D03*
X250317000Y-78333600D03*
%TD*%
D22*
%TO.C,C13*%
X239556800Y-78714600D03*
X241106800Y-78714600D03*
%TD*%
D16*
%TO.C,C72*%
X214621209Y-66937188D03*
X213071209Y-66937188D03*
%TD*%
D13*
%TO.C,D22*%
X199776080Y-27281900D03*
X199776080Y-29156900D03*
%TD*%
D14*
%TO.C,D18*%
X260096400Y-92423450D03*
D15*
X260096400Y-94963450D03*
X260096400Y-97503450D03*
X260096400Y-100043450D03*
X260096400Y-102583450D03*
X275336400Y-102583450D03*
X275336400Y-100043450D03*
X275336400Y-97503450D03*
X275336400Y-94963450D03*
X275336400Y-92423450D03*
%TD*%
D10*
%TO.C,TP5*%
X229149400Y-91694000D03*
X231149400Y-91694000D03*
%TD*%
D13*
%TO.C,D26*%
X207924400Y-27281900D03*
X207924400Y-29156900D03*
%TD*%
D56*
%TO.C,J5*%
X267980800Y-29298800D03*
X262980800Y-29298800D03*
D57*
X266780800Y-30398800D03*
X266130800Y-30398800D03*
X265480800Y-30398800D03*
X264830800Y-30398800D03*
X264180800Y-30398800D03*
D58*
X269355800Y-26548800D03*
D59*
X269205800Y-30348800D03*
X261755800Y-30348800D03*
D58*
X261605800Y-26548800D03*
%TD*%
D18*
%TO.C,R52*%
X252151000Y-63870401D03*
X252151000Y-62220401D03*
%TD*%
D54*
%TO.C,D12*%
X227406200Y-63706200D03*
X227406200Y-60906200D03*
%TD*%
D23*
%TO.C,C64*%
X238887000Y-98791800D03*
X238887000Y-100341800D03*
%TD*%
D60*
%TO.C,TR1*%
X208033600Y-89992200D03*
D61*
X208033600Y-102692200D03*
X218033600Y-102692200D03*
X218033600Y-89992200D03*
%TD*%
D49*
%TO.C,D7*%
X250317000Y-75869800D03*
X247517000Y-75869800D03*
%TD*%
D11*
%TO.C,R58*%
X248374800Y-48821600D03*
X248374800Y-50471600D03*
%TD*%
D13*
%TO.C,D21*%
X203835240Y-27277300D03*
X203835240Y-29152300D03*
%TD*%
D18*
%TO.C,R42*%
X243572400Y-54748800D03*
X243572400Y-53098800D03*
%TD*%
D62*
%TO.C,J1*%
X240642201Y-52273200D03*
D63*
X238102201Y-52273200D03*
X235562201Y-52273200D03*
X233022201Y-52273200D03*
%TD*%
D64*
%TO.C,C70*%
X215172509Y-65159188D03*
X213097509Y-65159188D03*
%TD*%
D23*
%TO.C,C67*%
X232073450Y-107429000D03*
X232073450Y-108979000D03*
%TD*%
D18*
%TO.C,R51*%
X252176400Y-59801000D03*
X252176400Y-58151000D03*
%TD*%
D17*
%TO.C,C69*%
X226771200Y-101191801D03*
X226771200Y-99641801D03*
%TD*%
D26*
%TO.C,SW3*%
X271387200Y-35396600D03*
X274787200Y-35396600D03*
%TD*%
D65*
%TO.C,Q2*%
X243001800Y-104875600D03*
X243001800Y-102975598D03*
X240969800Y-103925599D03*
%TD*%
D17*
%TO.C,C82*%
X216027000Y-74411138D03*
X216027000Y-72861138D03*
%TD*%
D22*
%TO.C,C15*%
X239556800Y-72694800D03*
X241106800Y-72694800D03*
%TD*%
D20*
%TO.C,Q7*%
X253949200Y-73979999D03*
X253949200Y-75880001D03*
X255981200Y-74930000D03*
%TD*%
D18*
%TO.C,R41*%
X245096400Y-54748800D03*
X245096400Y-53098800D03*
%TD*%
D66*
%TO.C,FB1*%
X241106800Y-74141164D03*
X241106800Y-75966164D03*
%TD*%
D16*
%TO.C,C3*%
X244503100Y-73939400D03*
X242953100Y-73939400D03*
%TD*%
%TO.C,C7*%
X244503100Y-72567800D03*
X242953100Y-72567800D03*
%TD*%
D22*
%TO.C,C4*%
X247517000Y-72415400D03*
X249067000Y-72415400D03*
%TD*%
D40*
%TO.C,C93*%
X201472800Y-42639700D03*
X201472800Y-34239700D03*
%TD*%
D22*
%TO.C,C99*%
X252445800Y-37693600D03*
X253995800Y-37693600D03*
%TD*%
D29*
%TO.C,TP8*%
X189992000Y-27508200D03*
%TD*%
D67*
%TO.C,J4*%
X201396600Y-120446800D03*
D43*
X206476600Y-120446800D03*
%TD*%
D22*
%TO.C,C19*%
X273237200Y-43332400D03*
X274787200Y-43332400D03*
%TD*%
D24*
%TO.C,C86*%
X221361000Y-72336138D03*
X221361000Y-74411138D03*
%TD*%
D68*
%TO.C,BT1*%
X261171600Y-45821600D03*
D69*
X268621600Y-45821600D03*
%TD*%
G36*
X207865661Y-105734013D02*
G01*
X207877665Y-105744265D01*
X208275935Y-106142535D01*
X208304161Y-106197933D01*
X208305400Y-106213670D01*
X208305400Y-110702330D01*
X208286187Y-110761461D01*
X208275935Y-110773465D01*
X208131665Y-110917735D01*
X208076267Y-110945961D01*
X208060530Y-110947200D01*
X198542670Y-110947200D01*
X198483539Y-110927987D01*
X198471535Y-110917735D01*
X198352665Y-110798865D01*
X198324439Y-110743467D01*
X198323200Y-110727730D01*
X198323200Y-105959670D01*
X198342413Y-105900539D01*
X198352665Y-105888535D01*
X198496935Y-105744265D01*
X198552333Y-105716039D01*
X198568070Y-105714800D01*
X207806530Y-105714800D01*
X207865661Y-105734013D01*
G37*
M02*
