%TF.GenerationSoftware,KiCad,Pcbnew,8.0.5*%
%TF.CreationDate,2024-11-25T17:26:56+07:00*%
%TF.ProjectId,MEASURE_POWER_AC,4d454153-5552-4455-9f50-4f5745525f41,rev?*%
%TF.SameCoordinates,Original*%
%TF.FileFunction,Paste,Top*%
%TF.FilePolarity,Positive*%
%FSLAX46Y46*%
G04 Gerber Fmt 4.6, Leading zero omitted, Abs format (unit mm)*
G04 Created by KiCad (PCBNEW 8.0.5) date 2024-11-25 17:26:56*
%MOMM*%
%LPD*%
G01*
G04 APERTURE LIST*
G04 Aperture macros list*
%AMRoundRect*
0 Rectangle with rounded corners*
0 $1 Rounding radius*
0 $2 $3 $4 $5 $6 $7 $8 $9 X,Y pos of 4 corners*
0 Add a 4 corners polygon primitive as box body*
4,1,4,$2,$3,$4,$5,$6,$7,$8,$9,$2,$3,0*
0 Add four circle primitives for the rounded corners*
1,1,$1+$1,$2,$3*
1,1,$1+$1,$4,$5*
1,1,$1+$1,$6,$7*
1,1,$1+$1,$8,$9*
0 Add four rect primitives between the rounded corners*
20,1,$1+$1,$2,$3,$4,$5,0*
20,1,$1+$1,$4,$5,$6,$7,0*
20,1,$1+$1,$6,$7,$8,$9,0*
20,1,$1+$1,$8,$9,$2,$3,0*%
G04 Aperture macros list end*
%ADD10RoundRect,0.170600X-0.244100X0.170600X-0.244100X-0.170600X0.244100X-0.170600X0.244100X0.170600X0*%
%ADD11RoundRect,0.174600X-0.249600X0.174600X-0.249600X-0.174600X0.249600X-0.174600X0.249600X0.174600X0*%
%ADD12RoundRect,0.170600X-0.170600X-0.244100X0.170600X-0.244100X0.170600X0.244100X-0.170600X0.244100X0*%
%ADD13RoundRect,0.174600X-0.174600X-0.249600X0.174600X-0.249600X0.174600X0.249600X-0.174600X0.249600X0*%
%ADD14RoundRect,0.218350X-0.430850X0.218350X-0.430850X-0.218350X0.430850X-0.218350X0.430850X0.218350X0*%
%ADD15RoundRect,0.199600X0.199600X0.224600X-0.199600X0.224600X-0.199600X-0.224600X0.199600X-0.224600X0*%
%ADD16RoundRect,0.199600X0.224600X-0.199600X0.224600X0.199600X-0.224600X0.199600X-0.224600X-0.199600X0*%
%ADD17RoundRect,0.170600X0.244100X-0.170600X0.244100X0.170600X-0.244100X0.170600X-0.244100X-0.170600X0*%
%ADD18RoundRect,0.174600X0.249600X-0.174600X0.249600X0.174600X-0.249600X0.174600X-0.249600X-0.174600X0*%
%ADD19RoundRect,0.218350X0.430850X-0.218350X0.430850X0.218350X-0.430850X0.218350X-0.430850X-0.218350X0*%
%ADD20R,1.066800X0.431800*%
%ADD21RoundRect,0.199600X-0.199600X-0.224600X0.199600X-0.224600X0.199600X0.224600X-0.199600X0.224600X0*%
%ADD22RoundRect,0.199600X-0.224600X0.199600X-0.224600X-0.199600X0.224600X-0.199600X0.224600X0.199600X0*%
%ADD23RoundRect,0.228383X-0.445817X0.308317X-0.445817X-0.308317X0.445817X-0.308317X0.445817X0.308317X0*%
%ADD24R,2.098400X1.598400*%
%ADD25RoundRect,0.235889X0.613311X-0.963311X0.613311X0.963311X-0.613311X0.963311X-0.613311X-0.963311X0*%
%ADD26RoundRect,0.170600X0.170600X0.244100X-0.170600X0.244100X-0.170600X-0.244100X0.170600X-0.244100X0*%
%ADD27RoundRect,0.174600X0.174600X0.249600X-0.174600X0.249600X-0.174600X-0.249600X0.174600X-0.249600X0*%
%ADD28R,1.398400X0.798400*%
%ADD29R,0.798400X1.398400*%
%ADD30R,0.798400X0.798400*%
%ADD31R,0.431800X1.358900*%
%ADD32R,2.895600X7.391400*%
%ADD33RoundRect,0.226909X-0.272291X-0.272291X0.272291X-0.272291X0.272291X0.272291X-0.272291X0.272291X0*%
%ADD34RoundRect,0.239840X0.959360X-1.909360X0.959360X1.909360X-0.959360X1.909360X-0.959360X-1.909360X0*%
%ADD35RoundRect,0.226909X-0.272291X0.272291X-0.272291X-0.272291X0.272291X-0.272291X0.272291X0.272291X0*%
%ADD36RoundRect,0.124600X0.124600X-0.849600X0.124600X0.849600X-0.124600X0.849600X-0.124600X-0.849600X0*%
%ADD37R,1.358900X0.431800*%
%ADD38R,0.177800X1.371600*%
%ADD39R,1.371600X0.177800*%
%ADD40RoundRect,0.226909X0.272291X0.272291X-0.272291X0.272291X-0.272291X-0.272291X0.272291X-0.272291X0*%
%ADD41R,0.457200X2.057400*%
%ADD42R,0.635000X0.254000*%
%ADD43RoundRect,0.226909X0.272291X-0.272291X0.272291X0.272291X-0.272291X0.272291X-0.272291X-0.272291X0*%
%ADD44R,1.098400X1.298400*%
%ADD45R,0.348400X1.198400*%
%ADD46RoundRect,0.228383X0.308317X0.445817X-0.308317X0.445817X-0.308317X-0.445817X0.308317X-0.445817X0*%
%ADD47RoundRect,0.225219X-0.423981X0.236481X-0.423981X-0.236481X0.423981X-0.236481X0.423981X0.236481X0*%
G04 APERTURE END LIST*
D10*
%TO.C,R5*%
X229756600Y-55157000D03*
D11*
X229756600Y-56807000D03*
%TD*%
D12*
%TO.C,R12*%
X244717200Y-33195600D03*
D13*
X246367200Y-33195600D03*
%TD*%
D14*
%TO.C,D23*%
X205887320Y-27281900D03*
X205887320Y-29156900D03*
%TD*%
D15*
%TO.C,C5*%
X245618600Y-58805000D03*
X244068600Y-58805000D03*
%TD*%
D16*
%TO.C,C98*%
X251510800Y-54064200D03*
X251510800Y-52514200D03*
%TD*%
D17*
%TO.C,R3*%
X276924400Y-47194200D03*
D18*
X276924400Y-45544200D03*
%TD*%
D12*
%TO.C,R9*%
X244691800Y-40815600D03*
D13*
X246341800Y-40815600D03*
%TD*%
D15*
%TO.C,C78*%
X213058809Y-76200000D03*
X211508809Y-76200000D03*
%TD*%
D17*
%TO.C,R8*%
X227418000Y-48587900D03*
D18*
X227418000Y-46937900D03*
%TD*%
D14*
%TO.C,D2*%
X231444800Y-55171100D03*
X231444800Y-57046100D03*
%TD*%
D19*
%TO.C,D25*%
X197739000Y-29156900D03*
X197739000Y-27281900D03*
%TD*%
D17*
%TO.C,R54*%
X252151000Y-71786599D03*
D18*
X252151000Y-70136599D03*
%TD*%
D15*
%TO.C,C16*%
X234315000Y-79587600D03*
X232765000Y-79587600D03*
%TD*%
D17*
%TO.C,R13*%
X244829400Y-29399600D03*
D18*
X244829400Y-27749600D03*
%TD*%
D16*
%TO.C,C11*%
X235534200Y-72403000D03*
X235534200Y-70853000D03*
%TD*%
D20*
%TO.C,Q3*%
X253974600Y-57898599D03*
X253974600Y-59798601D03*
X256006600Y-58848600D03*
%TD*%
D21*
%TO.C,C12*%
X232320800Y-68914200D03*
X233870800Y-68914200D03*
%TD*%
D17*
%TO.C,R6*%
X276924400Y-40920400D03*
D18*
X276924400Y-39270400D03*
%TD*%
D21*
%TO.C,C8*%
X247517000Y-73888600D03*
X249067000Y-73888600D03*
%TD*%
D22*
%TO.C,C17*%
X235956000Y-74951800D03*
X235956000Y-76501800D03*
%TD*%
D23*
%TO.C,C88*%
X223266000Y-72336138D03*
X223266000Y-74411138D03*
%TD*%
D24*
%TO.C,SW1*%
X271387200Y-47194200D03*
X274787200Y-47194200D03*
%TD*%
D19*
%TO.C,D3*%
X225526600Y-48587900D03*
X225526600Y-46712900D03*
%TD*%
D21*
%TO.C,C10*%
X232320800Y-67574800D03*
X233870800Y-67574800D03*
%TD*%
D10*
%TO.C,R7*%
X276924400Y-35396600D03*
D11*
X276924400Y-37046600D03*
%TD*%
D25*
%TO.C,D14*%
X218541600Y-69831200D03*
X218541600Y-73831200D03*
%TD*%
D26*
%TO.C,R38*%
X213058809Y-81674600D03*
D27*
X211408809Y-81674600D03*
%TD*%
D28*
%TO.C,U2*%
X225526600Y-26845600D03*
X225526600Y-28115600D03*
X225526600Y-29385600D03*
X225526600Y-30655600D03*
X225526600Y-31925600D03*
X225526600Y-33195600D03*
X225526600Y-34465600D03*
X225526600Y-35735600D03*
X225526600Y-37005600D03*
X225526600Y-38275600D03*
X225526600Y-39545600D03*
X225526600Y-40815600D03*
X225526600Y-42085600D03*
X225526600Y-43355600D03*
D29*
X228561600Y-44605600D03*
X229831600Y-44605600D03*
X231101600Y-44605600D03*
X232371600Y-44605600D03*
X233641600Y-44605600D03*
X234911600Y-44605600D03*
X236181600Y-44605600D03*
X237451600Y-44605600D03*
X238721600Y-44605600D03*
X239991600Y-44605600D03*
D28*
X243026600Y-43355600D03*
X243026600Y-42085600D03*
X243026600Y-40815600D03*
X243026600Y-39545600D03*
X243026600Y-38275600D03*
X243026600Y-37005600D03*
X243026600Y-35735600D03*
X243026600Y-34465600D03*
X243026600Y-33195600D03*
X243026600Y-31925600D03*
X243026600Y-30655600D03*
X243026600Y-29385600D03*
X243026600Y-28115600D03*
X243026600Y-26845600D03*
D30*
X231376600Y-33165600D03*
X232776600Y-33165600D03*
X234176600Y-33165600D03*
X231376600Y-34565600D03*
X232776600Y-34565600D03*
X234176600Y-34565600D03*
X231376600Y-35965600D03*
X232776600Y-35965600D03*
X234176600Y-35965600D03*
%TD*%
D16*
%TO.C,C9*%
X236905800Y-72377600D03*
X236905800Y-70827600D03*
%TD*%
D31*
%TO.C,U13*%
X214328809Y-68962838D03*
X213058809Y-68962838D03*
X211788809Y-68962838D03*
X210518809Y-68962838D03*
X210518809Y-74411138D03*
X211788809Y-74411138D03*
X213058809Y-74411138D03*
X214328809Y-74411138D03*
%TD*%
D32*
%TO.C,L1*%
X221027000Y-79687988D03*
X216027000Y-79687988D03*
%TD*%
D21*
%TO.C,C101*%
X246824200Y-28829000D03*
X248374200Y-28829000D03*
%TD*%
D22*
%TO.C,C68*%
X244627400Y-102399800D03*
X244627400Y-103949800D03*
%TD*%
D33*
%TO.C,D9*%
X242953100Y-75869800D03*
X245753100Y-75869800D03*
%TD*%
D10*
%TO.C,R1*%
X235944200Y-77937600D03*
D11*
X235944200Y-79587600D03*
%TD*%
D21*
%TO.C,C18*%
X273237200Y-49657000D03*
X274787200Y-49657000D03*
%TD*%
D12*
%TO.C,R2*%
X232245800Y-65569200D03*
D13*
X233895800Y-65569200D03*
%TD*%
D15*
%TO.C,C1*%
X245618600Y-60202000D03*
X244068600Y-60202000D03*
%TD*%
D34*
%TO.C,C92*%
X189687200Y-42630200D03*
X189687200Y-34230200D03*
%TD*%
D21*
%TO.C,C14*%
X239556800Y-77368400D03*
X241106800Y-77368400D03*
%TD*%
D16*
%TO.C,C97*%
X250139200Y-54064200D03*
X250139200Y-52514200D03*
%TD*%
D14*
%TO.C,D1*%
X227998200Y-55188000D03*
X227998200Y-57063000D03*
%TD*%
D20*
%TO.C,Q1*%
X228371400Y-98691800D03*
X228371400Y-100591802D03*
X230403400Y-99641801D03*
%TD*%
D21*
%TO.C,C100*%
X246769200Y-27051000D03*
X248319200Y-27051000D03*
%TD*%
D12*
%TO.C,R10*%
X244691800Y-37033600D03*
D13*
X246341800Y-37033600D03*
%TD*%
D17*
%TO.C,R31*%
X232073450Y-100341800D03*
D18*
X232073450Y-98691800D03*
%TD*%
D12*
%TO.C,R57*%
X251510800Y-39153200D03*
D13*
X253160800Y-39153200D03*
%TD*%
D21*
%TO.C,C6*%
X234352800Y-58754200D03*
X235902800Y-58754200D03*
%TD*%
D12*
%TO.C,R35*%
X211417800Y-63384800D03*
D13*
X213067800Y-63384800D03*
%TD*%
D12*
%TO.C,R39*%
X211408809Y-80301200D03*
D13*
X213058809Y-80301200D03*
%TD*%
D12*
%TO.C,R36*%
X208868809Y-65823200D03*
D13*
X210518809Y-65823200D03*
%TD*%
D35*
%TO.C,D13*%
X229844600Y-60855400D03*
X229844600Y-63655400D03*
%TD*%
D20*
%TO.C,Q4*%
X253949200Y-61970399D03*
X253949200Y-63870401D03*
X255981200Y-62920400D03*
%TD*%
D17*
%TO.C,R34*%
X246087000Y-104023601D03*
D18*
X246087000Y-102373601D03*
%TD*%
D21*
%TO.C,C2*%
X234352800Y-60151200D03*
X235902800Y-60151200D03*
%TD*%
D22*
%TO.C,C21*%
X223635600Y-26565600D03*
X223635600Y-28115600D03*
%TD*%
D14*
%TO.C,D24*%
X201813160Y-27281900D03*
X201813160Y-29156900D03*
%TD*%
D21*
%TO.C,C80*%
X208968809Y-67183000D03*
X210518809Y-67183000D03*
%TD*%
D20*
%TO.C,Q6*%
X253949200Y-69886597D03*
X253949200Y-71786599D03*
X255981200Y-70836598D03*
%TD*%
D22*
%TO.C,C65*%
X237521750Y-98791800D03*
X237521750Y-100341800D03*
%TD*%
D36*
%TO.C,U17*%
X250240800Y-50471600D03*
X251510800Y-50471600D03*
X252780800Y-50471600D03*
X254050800Y-50471600D03*
X255320800Y-50471600D03*
X256590800Y-50471600D03*
X257860800Y-50471600D03*
X259130800Y-50471600D03*
X259130800Y-41171600D03*
X257860800Y-41171600D03*
X256590800Y-41171600D03*
X255320800Y-41171600D03*
X254050800Y-41171600D03*
X252780800Y-41171600D03*
X251510800Y-41171600D03*
X250240800Y-41171600D03*
%TD*%
D12*
%TO.C,R28*%
X228689800Y-104634400D03*
D13*
X230339800Y-104634400D03*
%TD*%
D37*
%TO.C,U11*%
X232073450Y-101955600D03*
X232073450Y-103225600D03*
X232073450Y-104495600D03*
X232073450Y-105765600D03*
X237521750Y-105765600D03*
X237521750Y-104495600D03*
X237521750Y-103225600D03*
X237521750Y-101955600D03*
%TD*%
D38*
%TO.C,U1*%
X237102200Y-69041200D03*
X237602199Y-69041200D03*
X238102201Y-69041200D03*
X238602200Y-69041200D03*
X239102199Y-69041200D03*
X239602200Y-69041200D03*
X240102200Y-69041200D03*
X240602201Y-69041200D03*
X241102200Y-69041200D03*
X241602199Y-69041200D03*
X242102201Y-69041200D03*
X242602200Y-69041200D03*
D39*
X244068600Y-67574800D03*
X244068600Y-67074801D03*
X244068600Y-66574799D03*
X244068600Y-66074800D03*
X244068600Y-65574801D03*
X244068600Y-65074800D03*
X244068600Y-64574800D03*
X244068600Y-64074799D03*
X244068600Y-63574800D03*
X244068600Y-63074801D03*
X244068600Y-62574799D03*
X244068600Y-62074800D03*
D38*
X242602200Y-60608400D03*
X242102201Y-60608400D03*
X241602199Y-60608400D03*
X241102200Y-60608400D03*
X240602201Y-60608400D03*
X240102200Y-60608400D03*
X239602200Y-60608400D03*
X239102199Y-60608400D03*
X238602200Y-60608400D03*
X238102201Y-60608400D03*
X237602199Y-60608400D03*
X237102200Y-60608400D03*
D39*
X235635800Y-62074800D03*
X235635800Y-62574799D03*
X235635800Y-63074801D03*
X235635800Y-63574800D03*
X235635800Y-64074799D03*
X235635800Y-64574800D03*
X235635800Y-65074800D03*
X235635800Y-65574801D03*
X235635800Y-66074800D03*
X235635800Y-66574799D03*
X235635800Y-67074801D03*
X235635800Y-67574800D03*
%TD*%
D10*
%TO.C,R4*%
X226276800Y-55188000D03*
D11*
X226276800Y-56838000D03*
%TD*%
D12*
%TO.C,R27*%
X228689800Y-103237400D03*
D13*
X230339800Y-103237400D03*
%TD*%
D12*
%TO.C,R11*%
X244691800Y-35673400D03*
D13*
X246341800Y-35673400D03*
%TD*%
D22*
%TO.C,C22*%
X222111600Y-26565600D03*
X222111600Y-28115600D03*
%TD*%
D26*
%TO.C,R37*%
X213058809Y-77559800D03*
D27*
X211408809Y-77559800D03*
%TD*%
D40*
%TO.C,D8*%
X245753100Y-78333600D03*
X242953100Y-78333600D03*
%TD*%
D41*
%TO.C,U18*%
X250185800Y-35585400D03*
X251455800Y-35585400D03*
X252725800Y-35585400D03*
X253995800Y-35585400D03*
X255265800Y-35585400D03*
X256535800Y-35585400D03*
X257805800Y-35585400D03*
X259075800Y-35585400D03*
X259075800Y-28829000D03*
X257805800Y-28829000D03*
X256535800Y-28829000D03*
X255265800Y-28829000D03*
X253995800Y-28829000D03*
X252725800Y-28829000D03*
X251455800Y-28829000D03*
X250185800Y-28829000D03*
%TD*%
D35*
%TO.C,D10*%
X227406200Y-65473100D03*
X227406200Y-68273100D03*
%TD*%
D10*
%TO.C,R32*%
X239332400Y-103225600D03*
D11*
X239332400Y-104875600D03*
%TD*%
D24*
%TO.C,SW2*%
X271387200Y-40920400D03*
X274787200Y-40920400D03*
%TD*%
D17*
%TO.C,R55*%
X252151000Y-75880001D03*
D18*
X252151000Y-74230001D03*
%TD*%
D42*
%TO.C,D20*%
X264718800Y-33553400D03*
X264718800Y-34213800D03*
X264718800Y-34874200D03*
X266801600Y-34874200D03*
X266801600Y-34213800D03*
X266801600Y-33553400D03*
%TD*%
D20*
%TO.C,Q5*%
X253949200Y-66013997D03*
X253949200Y-67913999D03*
X255981200Y-66963998D03*
%TD*%
D10*
%TO.C,R30*%
X234100000Y-98691800D03*
D11*
X234100000Y-100341800D03*
%TD*%
D26*
%TO.C,R40*%
X213058809Y-78931400D03*
D27*
X211408809Y-78931400D03*
%TD*%
D16*
%TO.C,C77*%
X210036209Y-77750000D03*
X210036209Y-76200000D03*
%TD*%
D22*
%TO.C,C66*%
X233451400Y-107429000D03*
X233451400Y-108979000D03*
%TD*%
D43*
%TO.C,D11*%
X229844600Y-68247700D03*
X229844600Y-65447700D03*
%TD*%
D10*
%TO.C,R29*%
X235598600Y-98691800D03*
D11*
X235598600Y-100341800D03*
%TD*%
D44*
%TO.C,Y1*%
X232615000Y-75574800D03*
X232615000Y-77774800D03*
X234315000Y-77774800D03*
X234315000Y-75574800D03*
%TD*%
D21*
%TO.C,C20*%
X273237200Y-37808600D03*
X274787200Y-37808600D03*
%TD*%
D10*
%TO.C,R33*%
X225438600Y-99641801D03*
D11*
X225438600Y-101291801D03*
%TD*%
D17*
%TO.C,R53*%
X252151000Y-67913999D03*
D18*
X252151000Y-66263999D03*
%TD*%
D33*
%TO.C,D6*%
X247517000Y-78333600D03*
X250317000Y-78333600D03*
%TD*%
D21*
%TO.C,C13*%
X239556800Y-78714600D03*
X241106800Y-78714600D03*
%TD*%
D15*
%TO.C,C72*%
X214621209Y-66937188D03*
X213071209Y-66937188D03*
%TD*%
D14*
%TO.C,D22*%
X199776080Y-27281900D03*
X199776080Y-29156900D03*
%TD*%
%TO.C,D26*%
X207924400Y-27281900D03*
X207924400Y-29156900D03*
%TD*%
D45*
%TO.C,J5*%
X266780800Y-30398800D03*
X266130800Y-30398800D03*
X265480800Y-30398800D03*
X264830800Y-30398800D03*
X264180800Y-30398800D03*
%TD*%
D17*
%TO.C,R52*%
X252151000Y-63870401D03*
D18*
X252151000Y-62220401D03*
%TD*%
D43*
%TO.C,D12*%
X227406200Y-63706200D03*
X227406200Y-60906200D03*
%TD*%
D22*
%TO.C,C64*%
X238887000Y-98791800D03*
X238887000Y-100341800D03*
%TD*%
D40*
%TO.C,D7*%
X250317000Y-75869800D03*
X247517000Y-75869800D03*
%TD*%
D10*
%TO.C,R58*%
X248374800Y-48821600D03*
D11*
X248374800Y-50471600D03*
%TD*%
D14*
%TO.C,D21*%
X203835240Y-27277300D03*
X203835240Y-29152300D03*
%TD*%
D17*
%TO.C,R42*%
X243572400Y-54748800D03*
D18*
X243572400Y-53098800D03*
%TD*%
D46*
%TO.C,C70*%
X215172509Y-65159188D03*
X213097509Y-65159188D03*
%TD*%
D22*
%TO.C,C67*%
X232073450Y-107429000D03*
X232073450Y-108979000D03*
%TD*%
D17*
%TO.C,R51*%
X252176400Y-59801000D03*
D18*
X252176400Y-58151000D03*
%TD*%
D16*
%TO.C,C69*%
X226771200Y-101191801D03*
X226771200Y-99641801D03*
%TD*%
D24*
%TO.C,SW3*%
X271387200Y-35396600D03*
X274787200Y-35396600D03*
%TD*%
D20*
%TO.C,Q2*%
X243001800Y-104875600D03*
X243001800Y-102975598D03*
X240969800Y-103925599D03*
%TD*%
D16*
%TO.C,C82*%
X216027000Y-74411138D03*
X216027000Y-72861138D03*
%TD*%
D21*
%TO.C,C15*%
X239556800Y-72694800D03*
X241106800Y-72694800D03*
%TD*%
D20*
%TO.C,Q7*%
X253949200Y-73979999D03*
X253949200Y-75880001D03*
X255981200Y-74930000D03*
%TD*%
D17*
%TO.C,R41*%
X245096400Y-54748800D03*
D18*
X245096400Y-53098800D03*
%TD*%
D47*
%TO.C,FB1*%
X241106800Y-74141164D03*
X241106800Y-75966164D03*
%TD*%
D15*
%TO.C,C3*%
X244503100Y-73939400D03*
X242953100Y-73939400D03*
%TD*%
%TO.C,C7*%
X244503100Y-72567800D03*
X242953100Y-72567800D03*
%TD*%
D21*
%TO.C,C4*%
X247517000Y-72415400D03*
X249067000Y-72415400D03*
%TD*%
D34*
%TO.C,C93*%
X201472800Y-42639700D03*
X201472800Y-34239700D03*
%TD*%
D21*
%TO.C,C99*%
X252445800Y-37693600D03*
X253995800Y-37693600D03*
%TD*%
%TO.C,C19*%
X273237200Y-43332400D03*
X274787200Y-43332400D03*
%TD*%
D23*
%TO.C,C86*%
X221361000Y-72336138D03*
X221361000Y-74411138D03*
%TD*%
G36*
X207865661Y-105734013D02*
G01*
X207877665Y-105744265D01*
X208275935Y-106142535D01*
X208304161Y-106197933D01*
X208305400Y-106213670D01*
X208305400Y-110702330D01*
X208286187Y-110761461D01*
X208275935Y-110773465D01*
X208131665Y-110917735D01*
X208076267Y-110945961D01*
X208060530Y-110947200D01*
X198542670Y-110947200D01*
X198483539Y-110927987D01*
X198471535Y-110917735D01*
X198352665Y-110798865D01*
X198324439Y-110743467D01*
X198323200Y-110727730D01*
X198323200Y-105959670D01*
X198342413Y-105900539D01*
X198352665Y-105888535D01*
X198496935Y-105744265D01*
X198552333Y-105716039D01*
X198568070Y-105714800D01*
X207806530Y-105714800D01*
X207865661Y-105734013D01*
G37*
M02*
