%TF.GenerationSoftware,KiCad,Pcbnew,8.0.5*%
%TF.CreationDate,2024-11-25T17:27:01+07:00*%
%TF.ProjectId,MEASURE_POWER_AC,4d454153-5552-4455-9f50-4f5745525f41,rev?*%
%TF.SameCoordinates,Original*%
%TF.FileFunction,Plated,1,2,PTH,Mixed*%
%TF.FilePolarity,Positive*%
%FSLAX46Y46*%
G04 Gerber Fmt 4.6, Leading zero omitted, Abs format (unit mm)*
G04 Created by KiCad (PCBNEW 8.0.5) date 2024-11-25 17:27:01*
%MOMM*%
%LPD*%
G01*
G04 APERTURE LIST*
%TA.AperFunction,ComponentDrill*%
%ADD10C,0.200000*%
%TD*%
%TA.AperFunction,ViaDrill*%
%ADD11C,0.400000*%
%TD*%
%TA.AperFunction,ComponentDrill*%
%ADD12C,0.500000*%
%TD*%
G04 aperture for slot hole*
%TA.AperFunction,ComponentDrill*%
%ADD13C,0.550000*%
%TD*%
%TA.AperFunction,ComponentDrill*%
%ADD14C,0.700000*%
%TD*%
%TA.AperFunction,ComponentDrill*%
%ADD15C,0.812800*%
%TD*%
G04 aperture for slot hole*
%TA.AperFunction,ComponentDrill*%
%ADD16C,0.850000*%
%TD*%
%TA.AperFunction,ComponentDrill*%
%ADD17C,0.950000*%
%TD*%
%TA.AperFunction,ComponentDrill*%
%ADD18C,1.000000*%
%TD*%
%TA.AperFunction,ComponentDrill*%
%ADD19C,1.100000*%
%TD*%
%TA.AperFunction,ComponentDrill*%
%ADD20C,1.200000*%
%TD*%
%TA.AperFunction,ComponentDrill*%
%ADD21C,1.300000*%
%TD*%
%TA.AperFunction,ComponentDrill*%
%ADD22C,3.200000*%
%TD*%
G04 APERTURE END LIST*
D10*
%TO.C,U2*%
X231376600Y-33865600D03*
X231376600Y-35265600D03*
X232076600Y-33165600D03*
X232076600Y-34565600D03*
X232076600Y-35965600D03*
X232776600Y-33865600D03*
X232776600Y-35265600D03*
X233476600Y-33165600D03*
X233476600Y-34565600D03*
X233476600Y-35965600D03*
X234176600Y-33865600D03*
X234176600Y-35265600D03*
%TD*%
D11*
X187960000Y-46228000D03*
X187960000Y-48260000D03*
X187960000Y-50292000D03*
X187960000Y-52578000D03*
X188010800Y-64617600D03*
X189230000Y-46228000D03*
X189230000Y-48260000D03*
X189230000Y-50292000D03*
X189230000Y-52578000D03*
X190500000Y-46228000D03*
X190500000Y-48260000D03*
X190500000Y-50292000D03*
X190500000Y-52578000D03*
X191770000Y-40640000D03*
X191770000Y-42545000D03*
X191770000Y-44450000D03*
X193294000Y-26847800D03*
X193294000Y-28371800D03*
X193294000Y-33020000D03*
X193294000Y-34544000D03*
X193294000Y-36068000D03*
X193294000Y-37592000D03*
X194310000Y-40640000D03*
X194310000Y-42545000D03*
X194310000Y-44450000D03*
X194818000Y-26847800D03*
X194818000Y-28371800D03*
X194818000Y-33020000D03*
X194818000Y-34544000D03*
X194818000Y-36068000D03*
X194818000Y-37592000D03*
X196166500Y-29156900D03*
X196342000Y-26847800D03*
X196342000Y-33020000D03*
X196342000Y-34544000D03*
X196342000Y-36068000D03*
X196342000Y-37592000D03*
X196850000Y-40640000D03*
X196850000Y-42545000D03*
X196850000Y-44450000D03*
X197307200Y-75717400D03*
X197739000Y-25908000D03*
X198882000Y-33020000D03*
X198882000Y-34544000D03*
X198882000Y-36068000D03*
X198882000Y-37592000D03*
X199390000Y-40640000D03*
X199390000Y-42545000D03*
X199390000Y-44450000D03*
X199771000Y-25908000D03*
X199771000Y-30210200D03*
X201803000Y-25908000D03*
X201813160Y-30921960D03*
X203860400Y-25908000D03*
X204216000Y-106426000D03*
X204216000Y-107696000D03*
X204216000Y-108966000D03*
X204216000Y-110236000D03*
X204470000Y-40640000D03*
X204470000Y-42545000D03*
X204470000Y-44450000D03*
X204851000Y-33020000D03*
X204851000Y-34544000D03*
X204851000Y-36068000D03*
X204851000Y-37592000D03*
X205181200Y-75717400D03*
X205232000Y-114554000D03*
X205232000Y-115824000D03*
X205232000Y-117094000D03*
X205232000Y-118364000D03*
X205486000Y-106426000D03*
X205486000Y-107696000D03*
X205887320Y-30652720D03*
X205892400Y-25908000D03*
X206502000Y-114554000D03*
X206502000Y-115824000D03*
X206502000Y-117094000D03*
X206502000Y-118364000D03*
X206756000Y-106426000D03*
X206756000Y-107696000D03*
X207772000Y-114554000D03*
X207772000Y-115824000D03*
X207772000Y-117094000D03*
X207772000Y-118364000D03*
X207924400Y-25908000D03*
X211582000Y-56642000D03*
X211582000Y-57912000D03*
X211582000Y-59182000D03*
X212979000Y-56642000D03*
X213436200Y-113411000D03*
X213969600Y-50469800D03*
X213995000Y-35788600D03*
X214071200Y-107899200D03*
X214249000Y-119024400D03*
X216154000Y-29464000D03*
X216154000Y-30734000D03*
X217678000Y-29464000D03*
X217678000Y-30734000D03*
X219202000Y-29464000D03*
X219202000Y-30734000D03*
X220040200Y-117779800D03*
X220522800Y-104063800D03*
X220649800Y-106273600D03*
X220649800Y-107797600D03*
X220726000Y-29464000D03*
X220726000Y-30734000D03*
X222097600Y-87071200D03*
X222250000Y-29464000D03*
X222250000Y-30734000D03*
X223215200Y-103352600D03*
X223266000Y-106680000D03*
X223266000Y-117779800D03*
X223291400Y-107772200D03*
X224028000Y-29387800D03*
X224315000Y-114739400D03*
X224434400Y-94234000D03*
X225552000Y-73406000D03*
X225552000Y-74422000D03*
X226314000Y-58166000D03*
X226314000Y-59436000D03*
X226404694Y-102271306D03*
X226568000Y-73406000D03*
X226568000Y-74422000D03*
X226822000Y-76708000D03*
X226822000Y-77978000D03*
X226822000Y-79248000D03*
X226822000Y-80518000D03*
X226822000Y-81788000D03*
X226831700Y-108127800D03*
X226847400Y-114884200D03*
X226860400Y-120289350D03*
X227482400Y-89001600D03*
X228422200Y-70129400D03*
X228422200Y-84810600D03*
X228676200Y-105892600D03*
X229158800Y-101834350D03*
X229489000Y-100609400D03*
X229743000Y-59131200D03*
X230886000Y-69596000D03*
X230886000Y-70866000D03*
X230886000Y-72136000D03*
X231861116Y-96337147D03*
X232664000Y-70866000D03*
X232664000Y-72136000D03*
X232968800Y-120289350D03*
X233476800Y-83566000D03*
X233476800Y-86918800D03*
X233908600Y-70853000D03*
X233934000Y-72136000D03*
X234950000Y-109245400D03*
X235661200Y-110744000D03*
X235915200Y-57404000D03*
X237236000Y-78740000D03*
X237286800Y-75768200D03*
X237439200Y-92938600D03*
X238836200Y-97510600D03*
X239496600Y-75768200D03*
X239852200Y-71362719D03*
X240148795Y-57150000D03*
X240182400Y-97510600D03*
X241151922Y-57241577D03*
X241528600Y-102082600D03*
X241528600Y-102971600D03*
X241528600Y-107061000D03*
X241528600Y-109169200D03*
X241528600Y-110261400D03*
X241528600Y-111861600D03*
X241579400Y-88849200D03*
X241579400Y-92938600D03*
X242087400Y-82397600D03*
X242154019Y-57288650D03*
X242798600Y-109143800D03*
X242832401Y-58698324D03*
X243156154Y-57334928D03*
X244221000Y-109143800D03*
X245108107Y-51865668D03*
X245110000Y-47929800D03*
X245516400Y-109169200D03*
X245567200Y-110286800D03*
X245567200Y-123190000D03*
X245745000Y-82423000D03*
X245973600Y-29819600D03*
X246043725Y-50702831D03*
X246049800Y-98831400D03*
X246075200Y-43355600D03*
X246341000Y-34467800D03*
X246849997Y-61061600D03*
X247117515Y-38185855D03*
X247396000Y-47644000D03*
X247675400Y-110794800D03*
X247853200Y-61061600D03*
X247853200Y-65805000D03*
X248189700Y-46786800D03*
X248583400Y-63296800D03*
X248589800Y-66509900D03*
X248742200Y-39928800D03*
X248767600Y-88849200D03*
X248989800Y-41171600D03*
X249428000Y-27051000D03*
X249428000Y-62528400D03*
X249599400Y-38227000D03*
X250100918Y-61784359D03*
X250920199Y-66462141D03*
X250934928Y-65444211D03*
X250963575Y-64440199D03*
X251510800Y-118922800D03*
X252780800Y-45821600D03*
X252882400Y-53670200D03*
X253184930Y-26720800D03*
X254121251Y-81402244D03*
X254209600Y-53657500D03*
X254558800Y-26720800D03*
X254965200Y-39166800D03*
X255124000Y-81432400D03*
X257276600Y-102616000D03*
X257403600Y-38227000D03*
X262407400Y-34925000D03*
X264363200Y-74269600D03*
X264363200Y-87147400D03*
X265861800Y-69189600D03*
X265861800Y-82092800D03*
X265861800Y-94970600D03*
X265861800Y-103682800D03*
X266979400Y-66675000D03*
X266979400Y-79527400D03*
X266979400Y-92430600D03*
X269087600Y-66649600D03*
X269087600Y-79527400D03*
X269087600Y-92481400D03*
X270256000Y-69189600D03*
X270256000Y-82067400D03*
X270256000Y-94970600D03*
X270256000Y-103759000D03*
X271272000Y-74269600D03*
X271272000Y-87147400D03*
X272389600Y-70383400D03*
X274777200Y-33451800D03*
X275945600Y-37820600D03*
X276225000Y-49657000D03*
X276758400Y-44221400D03*
X276924400Y-42138600D03*
X277672800Y-102583450D03*
D12*
%TO.C,H3*%
X181902400Y-29057600D03*
%TO.C,H2*%
X181902400Y-121056400D03*
%TO.C,H3*%
X182605344Y-27360544D03*
X182605344Y-30754656D03*
%TO.C,H2*%
X182605344Y-119359344D03*
X182605344Y-122753456D03*
%TO.C,H3*%
X184302400Y-26657600D03*
X184302400Y-31457600D03*
%TO.C,H2*%
X184302400Y-118656400D03*
X184302400Y-123456400D03*
%TO.C,H3*%
X185999456Y-27360544D03*
X185999456Y-30754656D03*
%TO.C,H2*%
X185999456Y-119359344D03*
X185999456Y-122753456D03*
%TO.C,H3*%
X186702400Y-29057600D03*
%TO.C,H2*%
X186702400Y-121056400D03*
%TO.C,H4*%
X272224800Y-29057600D03*
%TO.C,H1*%
X272224800Y-121056400D03*
%TO.C,H4*%
X272927744Y-27360544D03*
X272927744Y-30754656D03*
%TO.C,H1*%
X272927744Y-119359344D03*
X272927744Y-122753456D03*
%TO.C,H4*%
X274624800Y-26657600D03*
X274624800Y-31457600D03*
%TO.C,H1*%
X274624800Y-118656400D03*
X274624800Y-123456400D03*
%TO.C,H4*%
X276321856Y-27360544D03*
X276321856Y-30754656D03*
%TO.C,H1*%
X276321856Y-119359344D03*
X276321856Y-122753456D03*
%TO.C,H4*%
X277024800Y-29057600D03*
%TO.C,H1*%
X277024800Y-121056400D03*
D13*
%TO.C,J5*%
X261605800Y-26223800D02*
X261605800Y-26873800D01*
X269355800Y-26223800D02*
X269355800Y-26873800D01*
D14*
%TO.C,TP1*%
X227625400Y-110109000D03*
%TO.C,TP5*%
X229149400Y-91694000D03*
%TO.C,TP1*%
X229625400Y-110109000D03*
%TO.C,TP5*%
X231149400Y-91694000D03*
%TO.C,TP2*%
X233492800Y-94538800D03*
X235492800Y-94538800D03*
%TO.C,TP4*%
X244551200Y-84877400D03*
X244551200Y-86877400D03*
%TO.C,TP6*%
X249199400Y-101920800D03*
X249199400Y-103920800D03*
%TO.C,TP3*%
X251472400Y-110633000D03*
X251472400Y-112633000D03*
D15*
%TO.C,D15*%
X260096400Y-53771000D03*
X260096400Y-56311000D03*
X260096400Y-58851000D03*
X260096400Y-61391000D03*
X260096400Y-63931000D03*
%TO.C,D16*%
X260096400Y-66655150D03*
X260096400Y-69195150D03*
X260096400Y-71735150D03*
X260096400Y-74275150D03*
X260096400Y-76815150D03*
%TO.C,D17*%
X260096400Y-79539300D03*
X260096400Y-82079300D03*
X260096400Y-84619300D03*
X260096400Y-87159300D03*
X260096400Y-89699300D03*
%TO.C,D18*%
X260096400Y-92423450D03*
X260096400Y-94963450D03*
X260096400Y-97503450D03*
X260096400Y-100043450D03*
X260096400Y-102583450D03*
%TO.C,D19*%
X260096400Y-105307600D03*
X260096400Y-107847600D03*
X260096400Y-110387600D03*
X260096400Y-112927600D03*
X260096400Y-115467600D03*
%TO.C,D15*%
X275336400Y-53771000D03*
X275336400Y-56311000D03*
X275336400Y-58851000D03*
X275336400Y-61391000D03*
X275336400Y-63931000D03*
%TO.C,D16*%
X275336400Y-66655150D03*
X275336400Y-69195150D03*
X275336400Y-71735150D03*
X275336400Y-74275150D03*
X275336400Y-76815150D03*
%TO.C,D17*%
X275336400Y-79539300D03*
X275336400Y-82079300D03*
X275336400Y-84619300D03*
X275336400Y-87159300D03*
X275336400Y-89699300D03*
%TO.C,D18*%
X275336400Y-92423450D03*
X275336400Y-94963450D03*
X275336400Y-97503450D03*
X275336400Y-100043450D03*
X275336400Y-102583450D03*
%TO.C,D19*%
X275336400Y-105307600D03*
X275336400Y-107847600D03*
X275336400Y-110387600D03*
X275336400Y-112927600D03*
X275336400Y-115467600D03*
D16*
%TO.C,J5*%
X261755800Y-30073800D02*
X261755800Y-30623800D01*
X269205800Y-30073800D02*
X269205800Y-30623800D01*
D17*
%TO.C,J3*%
X254294000Y-120726200D03*
X256794000Y-120726200D03*
X259294000Y-120726200D03*
D18*
%TO.C,PS1*%
X185354200Y-49432600D03*
X191354200Y-83032600D03*
X197354200Y-83032600D03*
X203354200Y-49432600D03*
%TO.C,J1*%
X233022201Y-52273200D03*
X235562201Y-52273200D03*
X238102201Y-52273200D03*
X240642201Y-52273200D03*
D19*
%TO.C,RV1*%
X194691000Y-105678600D03*
X194691000Y-110678600D03*
D20*
%TO.C,C74*%
X182354400Y-93798700D03*
X197354200Y-93798700D03*
%TO.C,TR1*%
X208033600Y-89992200D03*
X208033600Y-102692200D03*
X218033600Y-89992200D03*
X218033600Y-102692200D03*
D21*
%TO.C,J2*%
X185724600Y-105811400D03*
X185724600Y-110891400D03*
%TO.C,J4*%
X201396600Y-120446800D03*
X206476600Y-120446800D03*
%TO.C,SW5*%
X209270000Y-50459000D03*
X209270000Y-55459000D03*
%TO.C,SW4*%
X209295400Y-35776400D03*
X209295400Y-40776400D03*
%TO.C,SW5*%
X221770000Y-50459000D03*
X221770000Y-55459000D03*
%TO.C,SW4*%
X221795400Y-35776400D03*
X221795400Y-40776400D03*
D22*
%TO.C,H3*%
X184302400Y-29057600D03*
%TO.C,H2*%
X184302400Y-121056400D03*
%TO.C,H4*%
X274624800Y-29057600D03*
%TO.C,H1*%
X274624800Y-121056400D03*
M02*
